<?xml version="1.0" standalone="no"?>
<!DOCTYPE svg PUBLIC "-//W3C//DTD SVG 1.1//EN" "http://www.w3.org/Graphics/SVG/1.1/DTD/svg11.dtd" >
<svg>
<metadata>
Created by FontForge 20090622 at Fri Mar 16 04:48:03 2018
 By ffonts
Copyright Typo2 2018
</metadata>
<defs>
<font id="Super-Mario-World-Text-Box" horiz-adv-x="3584" >
  <font-face 
    font-family="Super Mario World Text Box"
    font-weight="400"
    font-stretch="normal"
    units-per-em="4096"
    panose-1="0 0 4 0 0 0 0 0 0 0"
    ascent="3584"
    descent="-512"
    x-height="2560"
    cap-height="3584"
    bbox="0 -512 3584 3584"
    underline-thickness="204"
    underline-position="511"
    unicode-range="U+0020-U+20AC"
  />
<missing-glyph horiz-adv-x="0" 
d="M1792 508v570h-570v-570h570zM2361 1175v570h-1139v-570h1139zM1792 1838v570h-570v-570h570zM2361 2505v566h-569q-237 0 -402 -165q-168 -168 -168 -401h1139zM0 0v3584h3584v-3584h-3584z" />
    <glyph glyph-name=".notdef" horiz-adv-x="0" 
d="M1792 508v570h-570v-570h570zM2361 1175v570h-1139v-570h1139zM1792 1838v570h-570v-570h570zM2361 2505v566h-569q-237 0 -402 -165q-168 -168 -168 -401h1139zM0 0v3584h3584v-3584h-3584z" />
    <glyph glyph-name="glyph1" horiz-adv-x="0" 
 />
    <glyph glyph-name="glyph2" horiz-adv-x="1536" 
 />
    <glyph glyph-name="space" unicode=" " horiz-adv-x="3072" 
 />
    <glyph glyph-name="exclam" unicode="!" horiz-adv-x="2560" 
d="M1024 0v512h1024v-512h-1024zM1024 1024v2560h1024v-2560h-1024z" />
    <glyph glyph-name="numbersign" unicode="#" horiz-adv-x="3072" 
d="M1536 1024v512h-512v-512h512zM512 0v512h-512v512h512v512h-512v512h512v512h512v-512h512v512h512v-512h512v-512h-512v-512h512v-512h-512v-512h-512v512h-512v-512h-512z" />
    <glyph glyph-name="dollar" unicode="$" 
d="M2048 1024v512h-512v-512h512zM1536 2048v512h-512v-512h512zM1024 0v512h-1024v512h1024v512h-512v512h-512v512h512v512h1024v512h512v-512h1024v-512h-1024v-512h512v-512h512v-512h-512v-512h-1024v-512h-512z" />
    <glyph glyph-name="quotesingle" unicode="'" horiz-adv-x="2560" 
d="M512 2560v512h512v512h1024v-512h-512v-512h-1024z" />
    <glyph glyph-name="parenleft" unicode="(" 
d="M2560 0v512h512v-512h-512zM1536 512v512h-512v1536h512v512h1024v-512h-512v-1536h512v-512h-1024zM2560 3072v512h512v-512h-512z" />
    <glyph glyph-name="parenright" unicode=")" 
d="M1024 0v512h512v-512h-512zM1536 512v512h512v1536h-512v512h1024v-512h512v-1536h-512v-512h-1024zM1024 3072v512h512v-512h-512z" />
    <glyph glyph-name="comma" unicode="," horiz-adv-x="2560" 
d="M512 0v512h512v512h1024v-512h-512v-512h-1024z" />
    <glyph glyph-name="hyphen" unicode="-" 
d="M0 1536v1024h3072v-1024h-3072z" />
    <glyph glyph-name="period" unicode="." horiz-adv-x="2560" 
d="M1024 0v1024h1024v-1024h-1024z" />
    <glyph glyph-name="zero" unicode="0" 
d="M2048 512v2560h-1024v-2560h1024zM512 0v512h-512v2560h512v512h2048v-512h512v-2560h-512v-512h-2048z" />
    <glyph glyph-name="one" unicode="1" horiz-adv-x="3072" 
d="M512 0v512h512v2048h-512v512h512v512h1024v-3072h512v-512h-2048z" />
    <glyph glyph-name="two" unicode="2" 
d="M0 0v512h512v512h512v512h512v512h512v1024h-1024v-512h-1024v512h512v512h2048v-512h512v-1024h-512v-512h-512v-512h-512v-512h1536v-512h-3072z" />
    <glyph glyph-name="three" unicode="3" 
d="M512 0v512h-512v512h1024v-512h1024v1024h-512v512h512v1024h-1024v-512h-1024v512h512v512h2048v-512h512v-1024h-512v-512h512v-1024h-512v-512h-2048z" />
    <glyph glyph-name="four" unicode="4" 
d="M512 1536v1024h512v-1024h-512zM1536 0v512h-1536v1024h512v-512h1024v1536h-512v512h512v512h1024v-2560h512v-512h-512v-512h-1024z" />
    <glyph glyph-name="five" unicode="5" 
d="M0 0v512h2048v1024h-2048v2048h2560v-512h-1536v-1024h1536v-512h512v-1024h-512v-512h-2560z" />
    <glyph glyph-name="six" unicode="6" 
d="M2048 512v1024h-1024v-1024h1024zM512 0v512h-512v2560h512v512h2048v-512h512v-512h-1024v512h-1024v-1024h1536v-512h512v-1024h-512v-512h-2048z" />
    <glyph glyph-name="seven" unicode="7" 
d="M1024 0v1536h512v1024h512v512h-1024v-512h-1024v1024h3072v-1024h-512v-1024h-512v-1536h-1024z" />
    <glyph glyph-name="eight" unicode="8" 
d="M2048 512v1024h-1024v-1024h1024zM2048 2048v1024h-1024v-1024h1024zM512 0v512h-512v1024h512v512h-512v1024h512v512h2048v-512h512v-1024h-512v-512h512v-1024h-512v-512h-2048z" />
    <glyph glyph-name="nine" unicode="9" 
d="M2048 2048v1024h-1024v-1024h1024zM512 0v512h-512v512h1024v-512h1024v1024h-1536v512h-512v1024h512v512h2048v-512h512v-2560h-512v-512h-2048z" />
    <glyph glyph-name="question" unicode="?" 
d="M1024 0v512h1024v-512h-1024zM1024 1024v512h512v512h512v1024h-1024v-512h-1024v512h512v512h2048v-512h512v-1024h-512v-512h-512v-512h-1024z" />
    <glyph glyph-name="A" unicode="A" 
d="M0 0v2560h512v512h512v-1536h1024v1536h512v-512h512v-2560h-1024v1024h-1024v-1024h-1024zM1024 3072v512h1024v-512h-1024z" />
    <glyph glyph-name="B" unicode="B" 
d="M2048 512v1024h-1024v-1024h1024zM2048 2048v1024h-1024v-1024h1024zM0 0v3584h2560v-512h512v-1024h-512v-512h512v-1024h-512v-512h-2560z" />
    <glyph glyph-name="C" unicode="C" 
d="M512 0v512h-512v2560h512v512h2048v-512h512v-512h-1024v512h-1024v-2560h1024v512h1024v-512h-512v-512h-2048z" />
    <glyph glyph-name="D" unicode="D" 
d="M2048 512v2560h-1024v-2560h1024zM0 0v3584h2560v-512h512v-2560h-512v-512h-2560z" />
    <glyph glyph-name="E" unicode="E" 
d="M0 0v3584h3072v-512h-2048v-1024h1536v-512h-1536v-1024h2048v-512h-3072z" />
    <glyph glyph-name="F" unicode="F" 
d="M0 0v3584h3072v-512h-2048v-1024h1536v-512h-1536v-1536h-1024z" />
    <glyph glyph-name="G" unicode="G" 
d="M2560 0v512h-512v1024h-512v512h1536v-2048h-512zM512 0v512h-512v2560h512v512h2048v-512h512v-512h-1024v512h-1024v-2560h1024v-512h-1536z" />
    <glyph glyph-name="H" unicode="H" 
d="M0 0v3584h1024v-1536h1024v1536h1024v-3584h-1024v1536h-1024v-1536h-1024z" />
    <glyph glyph-name="I" unicode="I" horiz-adv-x="3072" 
d="M512 0v512h512v2560h-512v512h2048v-512h-512v-2560h512v-512h-2048z" />
    <glyph glyph-name="J" unicode="J" 
d="M512 0v512h-512v512h1024v-512h512v2560h-512v512h2048v-512h-512v-2560h-512v-512h-1536z" />
    <glyph glyph-name="K" unicode="K" 
d="M0 0v3584h1024v-1024h512v512h512v512h1024v-512h-512v-512h-512v-512h-512v-512h512v-512h512v-512h512v-512h-1024v512h-512v512h-512v-1024h-1024z" />
    <glyph glyph-name="L" unicode="L" 
d="M0 0v3584h1024v-3072h2048v-512h-3072z" />
    <glyph glyph-name="M" unicode="M" 
d="M0 0v3584h512v-512h512v-512h512v512h512v512h1024v-3584h-1024v1536h-512v-512h-512v512h-512v-1536h-512z" />
    <glyph glyph-name="N" unicode="N" 
d="M0 0v3584h1024v-512h512v-512h512v-512h512v1536h512v-3584h-512v512h-512v512h-512v512h-512v512h-512v-2048h-512z" />
    <glyph glyph-name="O" unicode="O" 
d="M2048 512v2560h-1024v-2560h1024zM512 0v512h-512v2560h512v512h2048v-512h512v-2560h-512v-512h-2048z" />
    <glyph glyph-name="P" unicode="P" 
d="M2048 1536v1536h-1024v-1536h1024zM0 0v3584h2560v-512h512v-1536h-512v-512h-1536v-1024h-1024z" />
    <glyph glyph-name="Q" unicode="Q" 
d="M2560 0v512h512v-512h-512zM1536 512v512h512v2048h-1024v-1536h512v-512h-512v-512h512zM512 0v512h-512v2560h512v512h2048v-512h512v-2048h-512v-512h-512v-512h-1536z" />
    <glyph glyph-name="R" unicode="R" 
d="M2048 2048v1024h-1024v-1024h1024zM0 0v3584h2560v-512h512v-1024h-512v-512h-512v-512h512v-512h512v-512h-1024v512h-512v512h-512v-1024h-1024z" />
    <glyph glyph-name="S" unicode="S" 
d="M512 0v512h-512v512h1024v-512h1024v1024h-1536v512h-512v1024h512v512h2048v-512h512v-512h-1024v512h-1024v-1024h1536v-512h512v-1024h-512v-512h-2048z" />
    <glyph glyph-name="T" unicode="T" 
d="M1024 0v3072h-1024v512h3072v-512h-1024v-3072h-1024z" />
    <glyph glyph-name="U" unicode="U" 
d="M512 0v512h-512v3072h1024v-3072h1024v3072h1024v-3072h-512v-512h-2048z" />
    <glyph glyph-name="V" unicode="V" 
d="M1024 0v512h-512v1024h-512v2048h1024v-2560h1024v2560h1024v-2048h-512v-1024h-512v-512h-1024z" />
    <glyph glyph-name="W" unicode="W" 
d="M512 0v1024h-512v2560h512v-2048h512v1536h512v-1536h512v2048h1024v-2560h-512v-1024h-1024v1024h-512v-1024h-512z" />
    <glyph glyph-name="X" unicode="X" 
d="M0 0v1024h512v512h512v512h-512v512h-512v1024h1024v-1024h1024v1024h1024v-1024h-512v-512h-512v-512h512v-512h512v-1024h-1024v1024h-1024v-1024h-1024z" />
    <glyph glyph-name="Y" unicode="Y" 
d="M1024 0v1536h-512v512h-512v1536h1024v-1536h1024v1536h1024v-1536h-512v-512h-512v-1536h-1024z" />
    <glyph glyph-name="Z" unicode="Z" 
d="M0 0v1024h512v512h512v512h512v512h512v512h-2048v512h3072v-1024h-512v-512h-512v-512h-512v-512h-512v-512h2048v-512h-3072z" />
    <glyph glyph-name="a" unicode="a" horiz-adv-x="4096" 
d="M512 0v512h-512v512h512v512h1536v512h-1536v512h2048v-512h512v-1536h512v-512h-1024v512h-512v512h-1024v-512h1024v-512h-1536z" />
    <glyph glyph-name="b" unicode="b" 
d="M2048 512v1024h-1024v-1024h1024zM0 0v3584h1024v-1536h1536v-512h512v-1024h-512v-512h-2560z" />
    <glyph glyph-name="c" unicode="c" 
d="M512 0v512h-512v1536h512v512h2560v-512h-2048v-1536h2048v-512h-2560z" />
    <glyph glyph-name="d" unicode="d" 
d="M2048 512v1024h-1024v-1024h1024zM512 0v512h-512v1024h512v512h1536v1536h1024v-3584h-2560z" />
    <glyph glyph-name="e" unicode="e" 
d="M2048 1536v512h-1024v-512h1024zM512 0v512h-512v1536h512v512h2048v-512h512v-512h-512v-512h-1536v-512h1536v-512h-2048z" />
    <glyph glyph-name="f" unicode="f" 
d="M1024 0v1536h-1024v512h1024v1024h512v512h1536v-512h-1024v-1024h1024v-512h-1024v-1536h-1024z" />
    <glyph glyph-name="g" unicode="g" 
d="M2048 1024v1024h-1024v-1024h1024zM512 -512v512h1536v512h-1536v512h-512v1024h512v512h2048v-512h512v-2048h-512v-512h-2048z" />
    <glyph glyph-name="h" unicode="h" 
d="M0 0v3584h1024v-1536h1536v-512h512v-1536h-1024v1536h-1024v-1536h-1024z" />
    <glyph glyph-name="i" unicode="i" horiz-adv-x="2560" 
d="M1024 0v2560h1024v-2560h-1024zM1024 3072v512h1024v-512h-1024z" />
    <glyph glyph-name="j" unicode="j" horiz-adv-x="2560" 
d="M512 -512v512h512v2560h1024v-2560h-512v-512h-1024zM1024 3072v512h1024v-512h-1024z" />
    <glyph glyph-name="k" unicode="k" 
d="M0 0v3584h1024v-2048h512v512h512v512h1024v-512h-512v-512h-512v-512h512v-512h512v-512h-1024v512h-512v512h-512v-1024h-1024z" />
    <glyph glyph-name="l" unicode="l" horiz-adv-x="2560" 
d="M1024 0v3584h1024v-3584h-1024z" />
    <glyph glyph-name="m" unicode="m" 
d="M0 0v2560h2560v-512h512v-2048h-1024v2048h-512v-2048h-512v2048h-512v-2048h-512z" />
    <glyph glyph-name="n" unicode="n" horiz-adv-x="3072" 
d="M0 0v2560h2048v-512h512v-2048h-1024v2048h-1024v-2048h-512z" />
    <glyph glyph-name="o" unicode="o" 
d="M2048 512v1536h-1024v-1536h1024zM512 0v512h-512v1536h512v512h2048v-512h512v-1536h-512v-512h-2048z" />
    <glyph glyph-name="p" unicode="p" 
d="M2048 1024v1024h-1024v-1024h1024zM0 -512v3072h2560v-512h512v-1024h-512v-512h-1536v-1024h-1024z" />
    <glyph glyph-name="q" unicode="q" 
d="M2048 1024v1024h-1024v-1024h1024zM2048 -512v1024h-1536v512h-512v1024h512v512h2560v-3072h-1024z" />
    <glyph glyph-name="r" unicode="r" horiz-adv-x="3072" 
d="M0 0v2560h512v-512h512v512h1536v-512h-1024v-512h-512v-1536h-1024z" />
    <glyph glyph-name="s" unicode="s" 
d="M512 0v512h1536v512h-1536v512h-512v512h512v512h2048v-512h-1536v-512h1536v-512h512v-512h-512v-512h-2048z" />
    <glyph glyph-name="t" unicode="t" 
d="M1024 0v1536h-1024v512h1024v512h1024v-512h1024v-512h-1024v-1536h-1024z" />
    <glyph glyph-name="u" unicode="u" 
d="M512 0v512h-512v2048h1024v-2048h1024v2048h1024v-2560h-2560z" />
    <glyph glyph-name="v" unicode="v" 
d="M1024 0v512h1024v-512h-1024zM512 512v512h-512v1536h1024v-2048h-512zM2048 512v2048h1024v-1536h-512v-512h-512z" />
    <glyph glyph-name="w" unicode="w" 
d="M0 0v2560h512v-2048h512v2048h512v-2048h512v2048h1024v-2048h-512v-512h-2560z" />
    <glyph glyph-name="x" unicode="x" 
d="M0 0v512h512v512h512v512h-512v512h-512v512h1024v-512h1024v512h1024v-512h-512v-512h-512v-512h512v-512h512v-512h-1024v512h-1024v-512h-1024z" />
    <glyph glyph-name="y" unicode="y" 
d="M0 0v512h2048v512h-1536v512h-512v1024h1024v-1024h1024v1024h1024v-2048h-512v-512h-2560z" />
    <glyph glyph-name="z" unicode="z" 
d="M0 0v512h512v512h512v512h512v512h-1536v512h3072v-512h-512v-512h-512v-512h-512v-512h1536v-512h-3072z" />
    <glyph glyph-name="sterling" unicode="&#xa3;" 
d="M0 0v512h512v1024h-512v512h512v1024h512v512h2048v-512h-1536v-1024h1024v-512h-1024v-1024h1536v-512h-3072z" />
    <glyph glyph-name="yen" unicode="&#xa5;" 
d="M512 0v512h512v512h-512v512h512v512h-512v512h-512v1024h1024v-1024h1024v1024h1024v-1024h-512v-512h-512v-512h512v-512h-512v-512h512v-512h-2048z" />
    <glyph glyph-name="periodcentered" unicode="&#xb7;" horiz-adv-x="2560" 
d="M1024 1536v1024h1024v-1024h-1024z" />
    <glyph glyph-name="quoteleft" unicode="&#x2018;" horiz-adv-x="2560" 
d="M512 2560v512h512v512h1024v-512h-512v-512h-1024z" />
    <glyph glyph-name="quoteright" unicode="&#x2019;" horiz-adv-x="2560" 
d="M512 2560v512h512v512h1024v-512h-512v-512h-1024z" />
    <glyph glyph-name="bullet" unicode="&#x2022;" horiz-adv-x="2560" 
d="M1024 1536v1024h1024v-1024h-1024z" />
    <glyph glyph-name="Euro" unicode="&#x20ac;" 
d="M1024 0v512h-512v512h-512v512h512v512h-512v512h512v512h512v512h2048v-512h-1536v-512h1024v-512h-1024v-512h1024v-512h-1024v-512h1536v-512h-2048z" />
  </font>
</defs>
</svg>
